<svg width="55" height="54" viewBox="0 0 55 54" fill="none" xmlns="http://www.w3.org/2000/svg">
<path d="M32.167 48.375V41.625H23.167V48.375H32.167Z" fill="white"/>
<path d="M32.167 48.375V41.625H23.167V48.375H32.167Z" stroke="#CB2032" stroke-width="3"/>
<path d="M5.16699 22.5H14.167V36H5.16699V22.5ZM41.167 22.5H50.167V36H41.167V22.5Z" fill="#F9BEBF"/>
<path d="M14.167 22.5H5.16699V36H14.167V22.5ZM14.167 22.5V18C14.167 14.4196 15.5893 10.9858 18.1211 8.45406C20.6528 5.92232 24.0866 4.5 27.667 4.5C31.2474 4.5 34.6812 5.92232 37.2129 8.45406C39.7447 10.9858 41.167 14.4196 41.167 18V36M41.167 36H50.167V22.5H41.167V36ZM41.167 36C41.167 38.3869 40.2188 40.6761 38.531 42.364C36.8431 44.0518 34.5539 45 32.167 45" stroke="#CB2032" stroke-width="5"/>
</svg>
