<svg width="1195" height="496" viewBox="0 0 1195 496" fill="none" xmlns="http://www.w3.org/2000/svg">
<path d="M9.24805 0H54.349V79.7877H133.554V0H178.655V206.954H133.554V122.556H54.349V206.954H9.24805V0Z" fill="black" fill-opacity="0.05"/>
<path d="M343.395 172.572C336.452 184.708 327.343 194.262 316.096 201.205C304.821 208.148 291.185 211.591 275.188 211.591C264.191 211.591 254.026 209.731 244.695 205.954C235.336 202.205 227.199 196.956 220.284 190.207C213.341 183.459 207.953 175.516 204.093 166.351C200.233 157.215 198.317 147.134 198.317 136.136C198.317 125.916 200.233 116.252 204.093 107.087C207.953 97.9501 213.285 89.9241 220.145 83.0923C226.977 76.2605 234.975 70.8173 244.14 66.7626C253.304 62.708 263.274 60.6807 274.05 60.6807C285.797 60.6807 296.156 62.6247 305.126 66.4571C314.096 70.3174 321.567 75.5662 327.538 82.2036C333.509 88.841 338.035 96.6448 341.118 105.615C344.201 114.585 345.756 124.166 345.756 134.386C345.756 135.942 345.7 137.469 345.617 139.024C345.506 140.579 345.367 141.912 345.173 143.079C344.978 144.44 344.895 145.689 344.895 146.828H240.557C242.668 156.076 247 162.824 253.554 167.073C260.108 171.323 267.412 173.433 275.522 173.433C283.631 173.433 290.296 171.711 295.6 168.24C300.905 164.768 305.098 160.353 308.181 154.937L343.451 172.572H343.395ZM304.959 117.362C304.571 115.057 303.654 112.53 302.21 109.836C300.766 107.142 298.739 104.699 296.128 102.477C293.518 100.255 290.352 98.4222 286.575 96.9781C282.825 95.534 278.632 94.8119 273.994 94.8119C267.246 94.8119 260.997 96.7559 255.193 100.588C249.416 104.449 245.167 110.031 242.473 117.362H304.904H304.959Z" fill="black" fill-opacity="0.05"/>
<path d="M360.725 206.954V0H404.076V206.954H360.725Z" fill="black" fill-opacity="0.05"/>
<path d="M466.507 80.9262H469.395C472.672 75.3441 477.726 70.5674 484.558 66.6238C491.39 62.6803 500.027 60.7085 510.441 60.7085C519.495 60.7085 528.159 62.5414 536.463 66.2073C544.739 69.8731 552.015 75.0108 558.292 81.676C564.54 88.3134 569.511 96.2839 573.177 105.532C576.843 114.78 578.676 125 578.676 136.164C578.676 147.328 576.843 157.548 573.177 166.796C569.511 176.044 564.54 184.014 558.292 190.652C552.043 197.289 544.767 202.455 536.463 206.12C528.187 209.786 519.495 211.619 510.441 211.619C500.027 211.619 491.418 209.647 484.558 205.704C477.726 201.76 472.644 196.984 469.395 191.374H466.507L469.395 211.619V269.44H426.043V65.3186H466.507V80.9262ZM500.916 101.172C496.305 101.172 491.918 102.005 487.78 103.643C483.642 105.282 479.976 107.642 476.782 110.725C473.588 113.808 471.089 117.474 469.256 121.723C467.423 125.944 466.507 130.776 466.507 136.164C466.507 141.551 467.423 146.439 469.256 150.772C471.089 155.104 473.588 158.77 476.782 161.741C479.948 164.741 483.614 167.046 487.78 168.684C491.918 170.323 496.305 171.128 500.916 171.128C505.526 171.128 509.914 170.323 514.079 168.684C518.217 167.046 521.883 164.741 525.049 161.741C528.243 158.77 530.742 155.104 532.575 150.772C534.408 146.439 535.324 141.579 535.324 136.164C535.324 130.748 534.408 125.944 532.575 121.723C530.742 117.501 528.243 113.808 525.049 110.725C521.883 107.642 518.217 105.282 514.079 103.643C509.941 102.005 505.553 101.172 500.916 101.172Z" fill="black" fill-opacity="0.05"/>
<path d="M697.76 191.346H694.872C691.595 196.956 686.54 201.705 679.709 205.676C672.877 209.62 664.24 211.591 653.853 211.591C644.8 211.591 636.107 209.759 627.831 206.093C619.556 202.427 612.279 197.261 606.003 190.624C599.754 183.987 594.783 176.044 591.117 166.768C587.452 157.52 585.619 147.3 585.619 136.136C585.619 124.972 587.452 114.752 591.117 105.504C594.783 96.2562 599.754 88.3135 606.003 81.6484C612.252 75.011 619.528 69.8455 627.831 66.1796C636.107 62.5138 644.772 60.6809 653.853 60.6809C664.268 60.6809 672.877 62.6526 679.709 66.5962C686.54 70.5398 691.595 75.3165 694.872 80.8985H697.76L694.872 60.6531V0H738.223V206.954H697.76V191.346ZM663.351 171.101C667.989 171.101 672.349 170.295 676.515 168.657C680.653 167.018 684.319 164.713 687.512 161.714C690.678 158.742 693.206 155.076 695.039 150.744C696.872 146.412 697.788 141.552 697.788 136.136C697.788 130.721 696.872 125.916 695.039 121.695C693.206 117.474 690.706 113.78 687.512 110.697C684.319 107.615 680.681 105.254 676.515 103.616C672.377 101.977 667.989 101.144 663.351 101.144C658.713 101.144 654.353 101.977 650.215 103.616C646.077 105.254 642.411 107.615 639.218 110.697C636.024 113.78 633.525 117.446 631.692 121.695C629.859 125.916 628.942 130.748 628.942 136.136C628.942 141.524 629.859 146.412 631.692 150.744C633.525 155.076 636.024 158.742 639.218 161.714C642.384 164.713 646.05 167.018 650.215 168.657C654.353 170.295 658.741 171.101 663.351 171.101Z" fill="black" fill-opacity="0.05"/>
<path d="M896.91 172.572C889.967 184.708 880.858 194.262 869.611 201.205C858.335 208.148 844.7 211.591 828.703 211.591C817.706 211.591 807.541 209.731 798.21 205.954C788.851 202.205 780.714 196.956 773.799 190.207C766.856 183.459 761.468 175.516 757.608 166.351C753.748 157.215 751.832 147.134 751.832 136.136C751.832 125.916 753.748 116.252 757.608 107.087C761.468 97.9501 766.8 89.9241 773.66 83.0923C780.492 76.2605 788.49 70.8173 797.655 66.7626C806.819 62.708 816.789 60.6807 827.565 60.6807C839.312 60.6807 849.671 62.6247 858.641 66.4571C867.611 70.3174 875.082 75.5662 881.053 82.2036C887.023 88.841 891.55 96.6448 894.633 105.615C897.716 114.585 899.271 124.166 899.271 134.386C899.271 135.942 899.215 137.469 899.132 139.024C899.021 140.579 898.882 141.912 898.688 143.079C898.493 144.44 898.41 145.689 898.41 146.828H794.072C796.183 156.076 800.515 162.824 807.069 167.073C813.623 171.323 820.927 173.433 829.036 173.433C837.146 173.433 843.811 171.711 849.115 168.24C854.42 164.768 858.613 160.353 861.696 154.937L896.966 172.572H896.91ZM858.474 117.362C858.086 115.057 857.169 112.53 855.725 109.836C854.281 107.142 852.253 104.699 849.643 102.477C847.032 100.255 843.866 98.4222 840.09 96.9781C836.34 95.534 832.147 94.8119 827.509 94.8119C820.761 94.8119 814.512 96.7559 808.708 100.588C802.931 104.449 798.682 110.031 795.988 117.362H858.419H858.474Z" fill="black" fill-opacity="0.05"/>
<path d="M974.087 211.591C964.256 211.591 955.591 210.453 948.065 208.12C940.539 205.815 934.041 202.788 928.542 199.011C923.043 195.262 918.461 190.902 914.823 186.014C911.157 181.098 908.352 176.127 906.436 171.128L945.455 154.66C948.149 161.214 951.898 165.99 956.73 168.962C961.535 171.961 967.311 173.433 974.059 173.433C979.836 173.433 984.307 172.517 987.501 170.684C990.695 168.851 992.278 166.49 992.278 163.602C992.278 160.325 990.75 157.77 987.668 155.937C984.585 154.104 979.669 152.438 972.921 150.883L953.564 146.828C948.954 145.856 944.205 144.329 939.401 142.19C934.568 140.08 930.153 137.275 926.098 133.803C922.043 130.332 918.766 126.249 916.267 121.528C913.767 116.807 912.518 111.364 912.518 105.198C912.518 98.45 914.017 92.3402 916.989 86.8415C919.961 81.3427 924.071 76.6771 929.264 72.8168C934.457 68.9566 940.623 65.985 947.76 63.8744C954.897 61.7638 962.701 60.6807 971.171 60.6807C985.807 60.6807 998.443 63.2356 1009.02 68.3456C1019.63 73.4556 1027.6 81.9814 1033.02 93.9232L995.749 109.253C993.25 104.226 989.723 100.588 985.196 98.2556C980.669 95.9505 976.087 94.7841 971.477 94.7841C966.45 94.7841 962.423 95.6451 959.341 97.3947C956.258 99.1443 954.73 101.255 954.73 103.754C954.73 106.448 956.313 108.614 959.507 110.253C962.673 111.891 966.589 113.28 971.227 114.446L993.194 119.64C1007.64 123.111 1018.44 128.693 1025.58 136.386C1032.71 144.106 1036.27 153.16 1036.27 163.574C1036.27 169.934 1034.77 176.016 1031.8 181.792C1028.8 187.569 1024.58 192.679 1019.08 197.095C1013.58 201.538 1007.02 205.037 999.415 207.648C991.806 210.258 983.363 211.536 974.115 211.536L974.087 211.591Z" fill="black" fill-opacity="0.05"/>
<path d="M1050.1 0H1093.45V105.226H1096.34L1136.8 65.3465H1189.71V68.2347L1138.55 117.363L1194.93 204.065V206.954H1144.05L1107.92 147.134L1093.48 160.992V206.954H1050.13V0H1050.1Z" fill="black" fill-opacity="0.05"/>
<path d="M89.8965 496V462.174H0V426.321L86.1474 298.294H133.248V421.711H157.52V462.174H133.248V496H89.8965ZM89.8965 363.335H87.0083L47.9892 421.711H89.8965V363.335Z" fill="black" fill-opacity="0.05"/>
<path d="M218.812 496V348.589L185.569 362.475L169.684 325.483L227.782 298.322H262.191V496.028H218.84L218.812 496Z" fill="black" fill-opacity="0.05"/>
<path d="M337.896 496V348.589L304.654 362.475L288.769 325.483L346.867 298.322H381.276V496.028H337.924L337.896 496Z" fill="black" fill-opacity="0.05"/>
</svg>
