<svg width="361" height="133" viewBox="0 0 361 133" fill="none" xmlns="http://www.w3.org/2000/svg">
<g clip-path="url(#clip0_416_1124)">
<g clip-path="url(#clip1_416_1124)">
<mask id="mask0_416_1124" style="mask-type:luminance" maskUnits="userSpaceOnUse" x="0" y="4" width="361" height="112">
<path d="M360.5 4H0.5V116H360.5V4Z" fill="white"/>
</mask>
<g mask="url(#mask0_416_1124)">
<mask id="mask1_416_1124" style="mask-type:luminance" maskUnits="userSpaceOnUse" x="0" y="5" width="361" height="113">
<path d="M360.5 5.93115H0.5V117.931H360.5V5.93115Z" fill="white"/>
</mask>
<g mask="url(#mask1_416_1124)">
<path d="M1137.5 5.93115H-782.5V50.3449H1137.5V5.93115Z" fill="white"/>
<path fill-rule="evenodd" clip-rule="evenodd" d="M124.304 99.9442C95.2053 78.7904 65.007 51.3104 28.5825 51.3104H-790C-802.979 51.3104 -813.5 41.1519 -813.5 28.6207C-813.5 16.0896 -802.979 5.93105 -790 5.93105H29.5753C65.66 5.93105 95.6517 -21.0515 124.55 -41.9159C140.037 -53.0969 159.258 -59.7241 180 -59.7241C200.742 -59.7241 219.963 -53.0969 235.45 -41.9159C264.348 -21.0515 294.34 5.93105 330.425 5.93105H1149C1161.98 5.93105 1172.5 16.0896 1172.5 28.6207C1172.5 41.1519 1161.98 51.3104 1149 51.3104H331.417C294.993 51.3104 264.795 78.7904 235.696 99.9442C220.168 111.233 200.852 117.931 180 117.931C159.148 117.931 139.832 111.233 124.304 99.9442Z" fill="white"/>
</g>
</g>
</g>
</g>
<path d="M186.469 19.9648H180.587C167.652 19.9648 157.05 29.9786 156.085 42.6844C156.778 42.5623 157.499 42.5063 158.24 42.5063C158.811 42.5063 159.373 42.5436 159.917 42.6191C161.172 32.0703 170.126 23.9133 180.991 23.9133H186.067C196.932 23.9133 205.886 32.061 207.15 42.6005C207.675 42.5446 208.218 42.5063 208.761 42.5063C209.52 42.5063 210.259 42.5716 210.981 42.6937C210.026 29.9796 199.423 19.9648 186.469 19.9648Z" fill="black"/>
<path d="M171.342 55.6324C171.342 60.3583 168.841 64.5025 165.105 66.8188C163.916 67.5505 162.595 68.1033 161.189 68.4221C160.243 68.6467 159.251 68.7595 158.239 68.7595C150.998 68.7595 145.126 62.8806 145.126 55.6324C145.126 49.116 149.865 43.7153 156.084 42.6834C156.777 42.5613 157.499 42.5054 158.239 42.5054C158.81 42.5054 159.372 42.5427 159.916 42.6182C166.36 43.4338 171.342 48.9566 171.342 55.6324Z" fill="black"/>
<path d="M221.864 55.6324C221.864 62.1675 217.097 67.5878 210.849 68.5908C210.221 68.6943 209.575 68.7502 208.919 68.7595H208.76C207.768 68.7595 206.794 68.6467 205.866 68.4407C204.461 68.1219 203.141 67.5785 201.942 66.8468C198.167 64.5398 195.647 60.3769 195.647 55.6324C195.647 52.2665 196.921 49.1905 199.01 46.8658C199.431 46.3877 199.9 45.9374 200.396 45.5348C202.279 43.9688 204.602 42.9183 207.149 42.5995C207.674 42.5436 208.217 42.5054 208.76 42.5054C209.519 42.5054 210.258 42.5706 210.98 42.6927C217.162 43.7525 221.864 49.1439 221.864 55.6324Z" fill="black"/>
<path d="M208.918 68.7576C207.56 77.692 200.817 84.8544 192.118 86.823V88.7451C201.913 86.7102 209.499 78.639 210.847 68.5889C210.219 68.6923 209.573 68.7483 208.918 68.7576Z" fill="black"/>
<path d="M192.117 85.0176H183.492V90.038H192.117V85.0176Z" fill="#EA2427"/>
<path d="M156.022 73.3904H157.534V76.0684H160.189V73.3904H161.702V80.3366H160.189V77.5038H157.534V80.3366H156.022V73.3904Z" fill="black"/>
<path d="M167.225 79.1815C166.992 79.5889 166.687 79.9095 166.31 80.1426C165.932 80.3756 165.474 80.4912 164.938 80.4912C164.569 80.4912 164.229 80.4287 163.916 80.302C163.602 80.1761 163.329 79.9999 163.097 79.7734C162.865 79.5469 162.684 79.2804 162.555 78.9728C162.425 78.6661 162.361 78.3277 162.361 77.9586C162.361 77.6156 162.425 77.2912 162.555 76.9836C162.684 76.6769 162.863 76.4076 163.093 76.1782C163.322 75.9489 163.59 75.7662 163.897 75.6302C164.204 75.4941 164.539 75.426 164.9 75.426C165.294 75.426 165.641 75.4913 165.942 75.6199C166.243 75.7495 166.493 75.9256 166.693 76.1484C166.894 76.3712 167.045 76.6331 167.149 76.9342C167.252 77.2353 167.304 77.5569 167.304 77.8999C167.304 77.9521 167.302 78.0033 167.299 78.0555C167.296 78.1077 167.291 78.1525 167.285 78.1916C167.278 78.2373 167.275 78.2793 167.275 78.3175H163.777C163.848 78.6279 163.993 78.8544 164.213 78.997C164.433 79.1396 164.677 79.2104 164.949 79.2104C165.221 79.2104 165.445 79.1527 165.623 79.0361C165.8 78.9196 165.941 78.7714 166.044 78.5896L167.227 79.1815H167.225ZM165.936 77.3294C165.923 77.2521 165.893 77.1672 165.844 77.0768C165.796 76.9864 165.728 76.9044 165.64 76.8298C165.553 76.7552 165.447 76.6937 165.32 76.6452C165.194 76.5968 165.054 76.5725 164.898 76.5725C164.672 76.5725 164.462 76.6378 164.268 76.7664C164.074 76.896 163.932 77.0833 163.841 77.3294H165.934H165.936Z" fill="black"/>
<path d="M167.806 80.3366V73.3904H169.259V80.3366H167.806Z" fill="black"/>
<path d="M171.353 76.1066H171.45C171.56 75.9192 171.73 75.7589 171.959 75.6265C172.188 75.4942 172.477 75.428 172.826 75.428C173.13 75.428 173.421 75.4895 173.699 75.6125C173.976 75.7356 174.22 75.908 174.431 76.1317C174.64 76.3545 174.807 76.622 174.93 76.9324C175.053 77.2428 175.114 77.5858 175.114 77.9606C175.114 78.3353 175.053 78.6783 174.93 78.9887C174.807 79.2991 174.64 79.5666 174.431 79.7894C174.221 80.0122 173.977 80.1855 173.699 80.3086C173.421 80.4316 173.13 80.4931 172.826 80.4931C172.477 80.4931 172.189 80.4269 171.959 80.2946C171.73 80.1622 171.559 80.0019 171.45 79.8136H171.353L171.45 80.4931V82.4338H169.997V75.5846H171.353V76.1084V76.1066ZM172.506 76.7861C172.352 76.7861 172.205 76.814 172.066 76.869C171.927 76.924 171.804 77.0033 171.697 77.1067C171.59 77.2102 171.506 77.3332 171.445 77.4759C171.383 77.6175 171.353 77.7797 171.353 77.9606C171.353 78.1414 171.383 78.3054 171.445 78.4508C171.506 78.5963 171.59 78.7193 171.697 78.819C171.803 78.9197 171.926 78.9971 172.066 79.0521C172.205 79.1071 172.352 79.1341 172.506 79.1341C172.661 79.1341 172.808 79.1071 172.948 79.0521C173.086 78.9971 173.209 78.9197 173.315 78.819C173.422 78.7193 173.506 78.5963 173.568 78.4508C173.629 78.3054 173.66 78.1423 173.66 77.9606C173.66 77.7788 173.629 77.6175 173.568 77.4759C173.506 77.3342 173.422 77.2102 173.315 77.1067C173.209 77.0033 173.086 76.924 172.948 76.869C172.809 76.814 172.662 76.7861 172.506 76.7861Z" fill="black"/>
<path d="M179.106 79.8126H179.009C178.899 80.0009 178.73 80.1603 178.501 80.2936C178.272 80.4259 177.982 80.4921 177.634 80.4921C177.33 80.4921 177.039 80.4306 176.761 80.3076C176.484 80.1845 176.24 80.0112 176.03 79.7884C175.82 79.5656 175.653 79.299 175.531 78.9877C175.408 78.6773 175.346 78.3343 175.346 77.9596C175.346 77.5848 175.408 77.2418 175.531 76.9314C175.653 76.621 175.82 76.3544 176.03 76.1307C176.239 75.907 176.483 75.7346 176.761 75.6115C177.039 75.4885 177.329 75.427 177.634 75.427C177.983 75.427 178.272 75.4932 178.501 75.6255C178.73 75.7579 178.899 75.9182 179.009 76.1056H179.106L179.009 75.426V73.3884H180.463V80.3346H179.106V79.8107V79.8126ZM177.952 79.1331C178.108 79.1331 178.254 79.1061 178.394 79.0511C178.532 78.9961 178.655 78.9187 178.762 78.818C178.869 78.7183 178.953 78.5953 179.015 78.4498C179.076 78.3044 179.107 78.1413 179.107 77.9596C179.107 77.7778 179.076 77.6165 179.015 77.4749C178.953 77.3332 178.87 77.2092 178.762 77.1057C178.655 77.0023 178.533 76.923 178.394 76.868C178.255 76.813 178.108 76.7851 177.952 76.7851C177.797 76.7851 177.651 76.813 177.512 76.868C177.373 76.923 177.25 77.0023 177.143 77.1057C177.037 77.2092 176.952 77.3322 176.891 77.4749C176.829 77.6165 176.799 77.7787 176.799 77.9596C176.799 78.1404 176.829 78.3044 176.891 78.4498C176.952 78.5953 177.036 78.7183 177.143 78.818C177.249 78.9187 177.372 78.9961 177.512 79.0511C177.651 79.1061 177.798 79.1331 177.952 79.1331Z" fill="black"/>
<path d="M185.783 79.1815C185.55 79.5889 185.245 79.9095 184.868 80.1426C184.49 80.3756 184.033 80.4912 183.496 80.4912C183.128 80.4912 182.787 80.4287 182.474 80.302C182.16 80.1761 181.887 79.9999 181.655 79.7734C181.423 79.5469 181.242 79.2804 181.113 78.9728C180.983 78.6661 180.919 78.3277 180.919 77.9586C180.919 77.6156 180.983 77.2912 181.113 76.9836C181.242 76.6769 181.421 76.4076 181.651 76.1782C181.88 75.9489 182.148 75.7662 182.455 75.6302C182.763 75.4941 183.097 75.426 183.458 75.426C183.852 75.426 184.199 75.4913 184.5 75.6199C184.801 75.7495 185.051 75.9256 185.251 76.1484C185.452 76.3712 185.603 76.6331 185.707 76.9342C185.81 77.2353 185.862 77.5569 185.862 77.8999C185.862 77.9521 185.86 78.0033 185.858 78.0555C185.854 78.1077 185.849 78.1525 185.843 78.1916C185.836 78.2373 185.833 78.2793 185.833 78.3175H182.335C182.406 78.6279 182.551 78.8544 182.771 78.997C182.991 79.1396 183.236 79.2104 183.507 79.2104C183.779 79.2104 184.003 79.1527 184.181 79.0361C184.358 78.9196 184.499 78.7714 184.602 78.5896L185.785 79.1815H185.783ZM184.494 77.3294C184.481 77.2521 184.451 77.1672 184.402 77.0768C184.354 76.9864 184.286 76.9044 184.198 76.8298C184.111 76.7552 184.005 76.6937 183.878 76.6452C183.752 76.5968 183.612 76.5725 183.456 76.5725C183.23 76.5725 183.02 76.6378 182.826 76.7664C182.632 76.896 182.49 77.0833 182.399 77.3294H184.493H184.494Z" fill="black"/>
<path d="M188.371 80.4912C188.041 80.4912 187.75 80.453 187.498 80.3747C187.246 80.2973 187.028 80.1957 186.844 80.0689C186.659 79.9431 186.506 79.7967 186.384 79.6327C186.261 79.4677 186.167 79.3009 186.102 79.1331L187.411 78.5803C187.501 78.8003 187.627 78.9606 187.789 79.0604C187.95 79.161 188.143 79.2104 188.37 79.2104C188.563 79.2104 188.713 79.1797 188.82 79.1182C188.927 79.0566 188.981 78.9774 188.981 78.8805C188.981 78.7705 188.929 78.6847 188.826 78.6232C188.723 78.5617 188.558 78.5058 188.332 78.4536L187.683 78.3175C187.528 78.2848 187.369 78.2336 187.208 78.1618C187.046 78.091 186.898 77.9968 186.762 77.8803C186.626 77.7638 186.516 77.6268 186.432 77.4683C186.348 77.3098 186.306 77.1271 186.306 76.9202C186.306 76.6937 186.357 76.4886 186.456 76.3041C186.556 76.1195 186.694 75.9629 186.868 75.8334C187.042 75.7038 187.249 75.6041 187.488 75.5332C187.727 75.4624 187.989 75.426 188.273 75.426C188.764 75.426 189.187 75.5118 189.542 75.6833C189.898 75.8548 190.165 76.141 190.346 76.5418L189.097 77.0563C189.013 76.8876 188.895 76.7655 188.743 76.6872C188.591 76.6098 188.438 76.5707 188.283 76.5707C188.115 76.5707 187.98 76.5996 187.876 76.6583C187.773 76.717 187.722 76.7879 187.722 76.8717C187.722 76.9622 187.775 77.0349 187.882 77.0899C187.988 77.1449 188.119 77.1915 188.275 77.2306L189.011 77.4049C189.495 77.5214 189.858 77.7088 190.097 77.967C190.336 78.2261 190.455 78.53 190.455 78.8795C190.455 79.093 190.405 79.2971 190.305 79.491C190.205 79.6849 190.063 79.8564 189.879 80.0046C189.695 80.1538 189.475 80.2712 189.22 80.3588C188.965 80.4464 188.682 80.4893 188.372 80.4893L188.371 80.4912Z" fill="black"/>
<path d="M190.919 73.3904H192.373V76.9222H192.469L193.826 75.5837H195.6V75.6806L193.885 77.3295L195.775 80.2396V80.3366H194.069L192.858 78.3288L192.373 78.7939V80.3366H190.92V73.3904H190.919Z" fill="black"/>
<path d="M158.726 90.0379V88.9025H155.712V87.6992L158.6 83.4021H160.179V87.5444H160.993V88.9025H160.179V90.0379H158.726ZM158.726 85.5851H158.629L157.321 87.5444H158.726V85.5851Z" fill="#EA2427"/>
<path d="M163.048 90.0379V85.0902L161.933 85.5563L161.401 84.3147L163.349 83.4031H164.502V90.0388H163.049L163.048 90.0379Z" fill="#EA2427"/>
<path d="M167.041 90.0379V85.0902L165.926 85.5563L165.393 84.3147L167.341 83.4031H168.495V90.0388H167.042L167.041 90.0379Z" fill="#EA2427"/>
<defs>
<clipPath id="clip0_416_1124">
<rect width="360" height="130" fill="white" transform="translate(0.5 3)"/>
</clipPath>
<clipPath id="clip1_416_1124">
<rect width="360" height="116" fill="white" transform="translate(0.5 3)"/>
</clipPath>
</defs>
</svg>
