<svg width="270" height="67" viewBox="0 0 270 67" fill="none" xmlns="http://www.w3.org/2000/svg">
<mask id="mask0_605_1117" style="mask-type:luminance" maskUnits="userSpaceOnUse" x="0" y="0" width="270" height="67">
<path d="M270 0H0V67H270V0Z" fill="white"/>
</mask>
<g mask="url(#mask0_605_1117)">
<path fill-rule="evenodd" clip-rule="evenodd" d="M82.5373 47.3171C55.0552 26.5411 26.5346 -0.448273 -7.86633 -0.448273H-780.972C-793.23 -0.448273 -803.167 -10.4254 -803.167 -22.7328C-803.167 -35.0401 -793.23 -45.0172 -780.972 -45.0172H-6.92865C27.1513 -45.0172 55.4768 -71.518 82.7697 -92.0098C97.3963 -102.991 115.549 -109.5 135.139 -109.5C154.729 -109.5 172.882 -102.991 187.508 -92.0098C214.801 -71.518 243.127 -45.0172 277.207 -45.0172H1050.31C1062.56 -45.0172 1072.5 -35.0401 1072.5 -22.7328C1072.5 -10.4254 1062.56 -0.448273 1050.31 -0.448273H278.144C243.744 -0.448273 215.223 26.5411 187.741 47.3171C173.076 58.4046 154.833 64.9828 135.139 64.9828C115.446 64.9828 97.2026 58.4046 82.5373 47.3171Z" fill="white"/>
</g>
</svg>
