<svg width="117" height="108" viewBox="0 0 117 108" fill="none" xmlns="http://www.w3.org/2000/svg">
<path d="M62.3176 8.95459H54.7552C38.1244 8.95459 24.4924 21.8295 23.2522 38.1654C24.1429 38.0084 25.0707 37.9365 26.0224 37.9365C26.7575 37.9365 27.4793 37.9845 28.1785 38.0815C29.7922 24.5188 41.3052 14.0312 55.2736 14.0312H61.8005C75.77 14.0312 87.2818 24.5068 88.9076 38.0576C89.5816 37.9856 90.2807 37.9365 90.9786 37.9365C91.9543 37.9365 92.9049 38.0204 93.8326 38.1774C92.6044 21.8307 78.9724 8.95459 62.3176 8.95459Z" fill="#292A2D"/>
<path d="M42.8689 54.8132C42.8689 60.8893 39.6533 66.2176 34.8491 69.1957C33.3204 70.1365 31.6216 70.8472 29.8151 71.257C28.5988 71.5459 27.3227 71.6909 26.0213 71.6909C16.7123 71.6909 9.16187 64.1323 9.16187 54.8132C9.16187 46.4349 15.2554 39.4911 23.2511 38.1644C24.1418 38.0075 25.0696 37.9355 26.0213 37.9355C26.7564 37.9355 27.4783 37.9835 28.1774 38.0806C36.4629 39.1292 42.8689 46.23 42.8689 54.8132Z" fill="#292A2D"/>
<path d="M107.825 54.8132C107.825 63.2155 101.695 70.1844 93.6626 71.4739C92.8557 71.607 92.0249 71.6789 91.1821 71.6909H90.9774C89.7012 71.6909 88.449 71.5459 87.2567 71.281C85.4502 70.8711 83.7526 70.1724 82.2107 69.2317C77.3574 66.2655 74.1179 60.9133 74.1179 54.8132C74.1179 50.4856 75.7556 46.5308 78.4408 43.5419C78.9831 42.9271 79.5853 42.3482 80.2234 41.8305C82.644 39.8171 85.6309 38.4665 88.9063 38.0566C89.5803 37.9847 90.2795 37.9355 90.9774 37.9355C91.9531 37.9355 92.9036 38.0194 93.8314 38.1764C101.779 39.5391 107.825 46.4708 107.825 54.8132Z" fill="#292A2D"/>
<path d="M91.1798 71.6886C89.4343 83.1757 80.7646 92.3845 69.5796 94.9156V97.3868C82.1736 94.7706 91.9268 84.3933 93.6603 71.4717C92.8534 71.6047 92.0226 71.6766 91.1798 71.6886Z" fill="#292A2D"/>
<path d="M69.5785 92.5942H58.4893V99.049H69.5785V92.5942Z" fill="#292A2D"/>
<path d="M23.1709 77.6445H25.1151V81.0877H28.5293V77.6445H30.4735V86.5753H28.5293V82.9333H25.1151V86.5753H23.1709V77.6445Z" fill="#292A2D"/>
<path d="M37.575 85.0902C37.2757 85.614 36.883 86.0262 36.3982 86.3258C35.9121 86.6255 35.3243 86.7741 34.6348 86.7741C34.1607 86.7741 33.7225 86.6938 33.3203 86.5308C32.9168 86.369 32.5661 86.1425 32.268 85.8513C31.9687 85.56 31.7365 85.2173 31.5701 84.8218C31.4036 84.4275 31.321 83.9925 31.321 83.5179C31.321 83.0769 31.4036 82.6598 31.5701 82.2643C31.7365 81.87 31.9663 81.5237 32.262 81.2289C32.5565 80.934 32.9013 80.6992 33.2963 80.5242C33.6914 80.3492 34.1212 80.2617 34.5857 80.2617C35.0921 80.2617 35.5386 80.3456 35.9253 80.511C36.312 80.6776 36.634 80.9041 36.8914 81.1905C37.1488 81.4769 37.3439 81.8137 37.4768 82.2008C37.6097 82.5879 37.6767 83.0014 37.6767 83.4424C37.6767 83.5095 37.6743 83.5754 37.6707 83.6425C37.6659 83.7096 37.66 83.7672 37.6516 83.8175C37.6432 83.8762 37.6396 83.9302 37.6396 83.9793H33.1419C33.2329 84.3784 33.4196 84.6696 33.7022 84.853C33.9847 85.0363 34.2996 85.1274 34.6491 85.1274C34.9987 85.1274 35.286 85.0531 35.5147 84.9033C35.7433 84.7535 35.9241 84.5629 36.057 84.3292L37.5774 85.0902H37.575ZM35.9181 82.7089C35.9013 82.6095 35.8618 82.5004 35.7996 82.3842C35.7373 82.2679 35.6499 82.1625 35.5374 82.0666C35.4249 81.9707 35.2884 81.8916 35.1256 81.8293C34.964 81.767 34.7832 81.7358 34.5833 81.7358C34.2924 81.7358 34.023 81.8197 33.7728 81.9851C33.5238 82.1517 33.3406 82.3926 33.2245 82.7089H35.9157H35.9181Z" fill="#292A2D"/>
<path d="M38.322 86.5753V77.6445H40.1908V86.5753H38.322Z" fill="#292A2D"/>
<path d="M42.8832 81.1366H43.0077C43.1489 80.8957 43.3668 80.6896 43.6613 80.5194C43.9558 80.3493 44.3281 80.2642 44.7771 80.2642C45.1673 80.2642 45.5408 80.3433 45.8988 80.5014C46.2555 80.6596 46.5692 80.8814 46.8398 81.169C47.1091 81.4554 47.3234 81.7994 47.4814 82.1984C47.6394 82.5975 47.7185 83.0386 47.7185 83.5203C47.7185 84.0021 47.6394 84.4431 47.4814 84.8422C47.3234 85.2413 47.1091 85.5852 46.8398 85.8717C46.5704 86.1581 46.2567 86.381 45.8988 86.5392C45.542 86.6974 45.1673 86.7765 44.7771 86.7765C44.3281 86.7765 43.957 86.6914 43.6613 86.5212C43.3668 86.3511 43.1477 86.1449 43.0077 85.9028H42.8832L43.0077 86.7765V89.2717H41.1389V80.4655H42.8832V81.139V81.1366ZM44.3652 82.0103C44.1665 82.0103 43.9774 82.0462 43.799 82.117C43.6206 82.1877 43.4626 82.2895 43.3249 82.4226C43.1884 82.5556 43.0795 82.7138 43.0005 82.8971C42.9215 83.0793 42.882 83.2878 42.882 83.5203C42.882 83.7528 42.9215 83.9638 43.0005 84.1507C43.0795 84.3377 43.1872 84.4959 43.3249 84.6241C43.4614 84.7535 43.6194 84.853 43.799 84.9237C43.9774 84.9944 44.1665 85.0292 44.3652 85.0292C44.564 85.0292 44.7531 84.9944 44.9327 84.9237C45.1111 84.853 45.2691 84.7535 45.4056 84.6241C45.5432 84.4959 45.651 84.3377 45.73 84.1507C45.809 83.9638 45.8485 83.754 45.8485 83.5203C45.8485 83.2866 45.809 83.0793 45.73 82.8971C45.651 82.715 45.5432 82.5556 45.4056 82.4226C45.2691 82.2895 45.1111 82.1877 44.9327 82.117C44.7543 82.0462 44.5652 82.0103 44.3652 82.0103Z" fill="#292A2D"/>
<path d="M52.8507 85.9018H52.7262C52.5849 86.1438 52.3671 86.3488 52.0726 86.5202C51.7781 86.6903 51.4057 86.7754 50.958 86.7754C50.5677 86.7754 50.193 86.6963 49.8363 86.5381C49.4795 86.3799 49.1659 86.157 48.8953 85.8706C48.626 85.5842 48.4117 85.2414 48.2536 84.8411C48.0956 84.4421 48.0166 84.001 48.0166 83.5193C48.0166 83.0375 48.0956 82.5965 48.2536 82.1974C48.4117 81.7983 48.626 81.4555 48.8953 81.1679C49.1647 80.8815 49.4783 80.6586 49.8363 80.5004C50.193 80.3422 50.5665 80.2631 50.958 80.2631C51.4069 80.2631 51.7781 80.3482 52.0726 80.5184C52.3671 80.6885 52.5849 80.8947 52.7262 81.1356H52.8507L52.7262 80.2619V77.6421H54.5949V86.5729H52.8507V85.8994V85.9018ZM51.3674 85.0281C51.5674 85.0281 51.7553 84.9933 51.9349 84.9226C52.1133 84.8519 52.2713 84.7524 52.409 84.623C52.5454 84.4948 52.6544 84.3366 52.7334 84.1496C52.8124 83.9627 52.8519 83.753 52.8519 83.5193C52.8519 83.2856 52.8124 83.0782 52.7334 82.8961C52.6544 82.7139 52.5466 82.5545 52.409 82.4215C52.2713 82.2885 52.1145 82.1866 51.9349 82.1159C51.7565 82.0452 51.5674 82.0092 51.3674 82.0092C51.1675 82.0092 50.9796 82.0452 50.8012 82.1159C50.6228 82.1866 50.4648 82.2885 50.3271 82.4215C50.1906 82.5545 50.0817 82.7127 50.0027 82.8961C49.9237 83.0782 49.8842 83.2868 49.8842 83.5193C49.8842 83.7518 49.9237 83.9627 50.0027 84.1496C50.0817 84.3366 50.1894 84.4948 50.3271 84.623C50.4636 84.7524 50.6216 84.8519 50.8012 84.9226C50.9796 84.9933 51.1687 85.0281 51.3674 85.0281Z" fill="#292A2D"/>
<path d="M61.4353 85.0902C61.136 85.614 60.7434 86.0262 60.2585 86.3258C59.7725 86.6255 59.1847 86.7741 58.4951 86.7741C58.021 86.7741 57.5829 86.6938 57.1806 86.5308C56.7772 86.369 56.4264 86.1425 56.1283 85.8513C55.8291 85.56 55.5968 85.2173 55.4304 84.8218C55.264 84.4275 55.1814 83.9925 55.1814 83.5179C55.1814 83.0769 55.264 82.6598 55.4304 82.2643C55.5968 81.87 55.8267 81.5237 56.1224 81.2289C56.4169 80.934 56.7616 80.6992 57.1567 80.5242C57.5518 80.3492 57.9815 80.2617 58.446 80.2617C58.9524 80.2617 59.399 80.3456 59.7856 80.511C60.1723 80.6776 60.4944 80.9041 60.7517 81.1905C61.0091 81.4769 61.2043 81.8137 61.3371 82.2008C61.47 82.5879 61.5371 83.0014 61.5371 83.4424C61.5371 83.5095 61.5347 83.5754 61.5311 83.6425C61.5263 83.7096 61.5203 83.7672 61.5119 83.8175C61.5036 83.8762 61.5 83.9302 61.5 83.9793H57.0023C57.0932 84.3784 57.28 84.6696 57.5625 84.853C57.8451 85.0363 58.1599 85.1274 58.5095 85.1274C58.859 85.1274 59.1464 85.0531 59.375 84.9033C59.6037 84.7535 59.7844 84.5629 59.9173 84.3292L61.4377 85.0902H61.4353ZM59.7785 82.7089C59.7617 82.6095 59.7222 82.5004 59.6599 82.3842C59.5977 82.2679 59.5103 82.1625 59.3978 82.0666C59.2852 81.9707 59.1488 81.8916 58.9859 81.8293C58.8243 81.767 58.6436 81.7358 58.4436 81.7358C58.1527 81.7358 57.8834 81.8197 57.6332 81.9851C57.3842 82.1517 57.201 82.3926 57.0849 82.7089H59.7761H59.7785Z" fill="#292A2D"/>
<path d="M64.7622 86.7741C64.3384 86.7741 63.9649 86.7249 63.6405 86.6243C63.316 86.5248 63.0359 86.3942 62.7989 86.2312C62.5618 86.0694 62.3643 85.8812 62.2075 85.6703C62.0495 85.4582 61.9286 85.2436 61.8459 85.0279L63.5279 84.3172C63.6441 84.6001 63.8057 84.8062 64.014 84.9345C64.2211 85.0639 64.4701 85.1274 64.761 85.1274C65.01 85.1274 65.2028 85.0879 65.3404 85.0088C65.4781 84.9297 65.5463 84.8278 65.5463 84.7032C65.5463 84.5617 65.4805 84.4515 65.3476 84.3724C65.2147 84.2933 65.0028 84.2214 64.7119 84.1543L63.8775 83.9793C63.6788 83.9373 63.4741 83.8714 63.267 83.7792C63.0587 83.6881 62.8683 83.567 62.6935 83.4172C62.5187 83.2674 62.3775 83.0912 62.2697 82.8875C62.162 82.6838 62.1081 82.4489 62.1081 82.1828C62.1081 81.8916 62.1728 81.6279 62.3009 81.3907C62.429 81.1534 62.6061 80.952 62.83 80.7854C63.0539 80.6189 63.3196 80.4906 63.6273 80.3995C63.935 80.3085 64.2714 80.2617 64.6365 80.2617C65.2674 80.2617 65.8121 80.372 66.2682 80.5925C66.7255 80.813 67.0691 81.1809 67.3026 81.6963L65.696 82.3578C65.5882 82.1409 65.4362 81.9839 65.2411 81.8832C65.0459 81.7837 64.8484 81.7334 64.6497 81.7334C64.433 81.7334 64.2594 81.7706 64.1265 81.8461C63.9936 81.9216 63.9278 82.0126 63.9278 82.1205C63.9278 82.2368 63.996 82.3302 64.1337 82.4009C64.2702 82.4717 64.439 82.5316 64.6389 82.5819L65.5858 82.806C66.2084 82.9558 66.6741 83.1967 66.9817 83.5287C67.2894 83.8618 67.4426 84.2525 67.4426 84.702C67.4426 84.9764 67.378 85.2389 67.2499 85.4881C67.1206 85.7374 66.9386 85.9579 66.7016 86.1485C66.4646 86.3402 66.182 86.4912 65.854 86.6039C65.526 86.7165 65.1621 86.7717 64.7634 86.7717L64.7622 86.7741Z" fill="#292A2D"/>
<path d="M68.0388 77.6445H69.9076V82.1854H70.0321L71.7763 80.4645H74.0569V80.5891L71.8517 82.7091L74.282 86.4507V86.5753H72.0888L70.5313 83.9939L69.9088 84.5919V86.5753H68.04V77.6445H68.0388Z" fill="#292A2D"/>
<path d="M26.6474 99.0488V97.5891H22.7722V96.0419L26.4858 90.5171H28.5161V95.843H29.5625V97.5891H28.5161V99.0488H26.6474ZM26.6474 93.3238H26.5229L24.8409 95.843H26.6474V93.3238Z" fill="#292A2D"/>
<path d="M32.2047 99.0486V92.6873L30.7717 93.2865L30.0869 91.6901L32.5914 90.5181H34.0746V99.0498H32.2059L32.2047 99.0486Z" fill="#292A2D"/>
<path d="M37.338 99.0486V92.6873L35.905 93.2865L35.2202 91.6901L37.7247 90.5181H39.2079V99.0498H37.3392L37.338 99.0486Z" fill="#292A2D"/>
</svg>
