<svg width="105" height="41" viewBox="0 0 105 41" fill="none" xmlns="http://www.w3.org/2000/svg">
<path d="M22.9339 4.10522H20.1948C14.1711 4.10522 9.23364 8.77996 8.78442 14.7114C9.10703 14.6544 9.44307 14.6283 9.78779 14.6283C10.054 14.6283 10.3155 14.6457 10.5687 14.6809C11.1532 9.75642 15.3232 5.94849 20.3825 5.94849H22.7466C27.8063 5.94849 31.9759 9.75206 32.5647 14.6722C32.8088 14.6461 33.0621 14.6283 33.3149 14.6283C33.6682 14.6283 34.0125 14.6587 34.3486 14.7157C33.9037 8.78039 28.9662 4.10522 22.9339 4.10522Z" fill="white"/>
<path d="M15.89 20.7558C15.89 22.962 14.7254 24.8966 12.9853 25.9779C12.4316 26.3195 11.8163 26.5776 11.162 26.7264C10.7214 26.8312 10.2592 26.8839 9.78788 26.8839C6.41615 26.8839 3.6814 24.1395 3.6814 20.7558C3.6814 17.7137 5.88845 15.1925 8.78451 14.7108C9.10711 14.6538 9.44316 14.6277 9.78788 14.6277C10.0541 14.6277 10.3156 14.6451 10.5688 14.6803C13.5698 15.0611 15.89 17.6393 15.89 20.7558Z" fill="white"/>
<path d="M39.4171 20.7558C39.4171 23.8066 37.1971 26.3369 34.2876 26.8051C33.9953 26.8534 33.6944 26.8795 33.3891 26.8839H33.315C32.8527 26.8839 32.3992 26.8312 31.9673 26.7351C31.313 26.5863 30.6982 26.3326 30.1397 25.991C28.3818 24.914 27.2085 22.9707 27.2085 20.7558C27.2085 19.1845 27.8017 17.7485 28.7742 16.6633C28.9707 16.4401 29.1888 16.2299 29.4199 16.0419C30.2966 15.3109 31.3785 14.8205 32.5648 14.6716C32.809 14.6455 33.0622 14.6277 33.315 14.6277C33.6684 14.6277 34.0126 14.6581 34.3487 14.7151C37.2274 15.2099 39.4171 17.7268 39.4171 20.7558Z" fill="white"/>
<path d="M33.3878 26.8832C32.7556 31.054 29.6154 34.3977 25.5642 35.3167V36.214C30.1258 35.264 33.6583 31.4961 34.2862 26.8044C33.994 26.8527 33.693 26.8789 33.3878 26.8832Z" fill="white"/>
<path d="M25.5641 34.4736H21.5476V36.8173H25.5641V34.4736Z" fill="white"/>
<g clip-path="url(#clip0_310_785)">
<path d="M54.3948 9H56.3197V12.3781H59.7003V9H61.6253V17.7622H59.7003V14.1889H56.3197V17.7622H54.3948V9Z" fill="white"/>
<path d="M68.6565 16.3064C68.3602 16.8203 67.9714 17.2247 67.4913 17.5187C67.0101 17.8127 66.4281 17.9585 65.7453 17.9585C65.276 17.9585 64.8421 17.8797 64.4439 17.7198C64.0444 17.561 63.6971 17.3388 63.402 17.0531C63.1056 16.7674 62.8757 16.4311 62.7109 16.0431C62.5461 15.6562 62.4644 15.2294 62.4644 14.7638C62.4644 14.3311 62.5461 13.9219 62.7109 13.5339C62.8757 13.147 63.1032 12.8072 63.396 12.518C63.6876 12.2287 64.029 11.9983 64.4202 11.8266C64.8113 11.6549 65.2368 11.5691 65.6968 11.5691C66.1981 11.5691 66.6403 11.6514 67.0231 11.8137C67.406 11.9771 67.7249 12.1993 67.9797 12.4803C68.2345 12.7614 68.4278 13.0918 68.5593 13.4716C68.6909 13.8513 68.7573 14.257 68.7573 14.6897C68.7573 14.7555 68.7549 14.8202 68.7513 14.8861C68.7466 14.9519 68.7407 15.0083 68.7324 15.0577C68.7241 15.1153 68.7205 15.1683 68.7205 15.2165H64.2672C64.3573 15.608 64.5422 15.8937 64.822 16.0736C65.1017 16.2535 65.4135 16.3429 65.7596 16.3429C66.1057 16.3429 66.3902 16.27 66.6166 16.123C66.843 15.976 67.022 15.7891 67.1535 15.5598L68.6589 16.3064H68.6565ZM67.016 13.9689C66.9994 13.8713 66.9603 13.7643 66.8987 13.6503C66.837 13.5362 66.7505 13.4328 66.6391 13.3387C66.5277 13.2446 66.3925 13.167 66.2313 13.1059C66.0713 13.0447 65.8923 13.0142 65.6944 13.0142C65.4063 13.0142 65.1396 13.0965 64.8919 13.2587C64.6454 13.4222 64.464 13.6585 64.349 13.9689H67.0137H67.016Z" fill="white"/>
<path d="M69.3962 17.7622V9H71.2465V17.7622H69.3962Z" fill="white"/>
<path d="M73.9111 12.4263H74.0344C74.1742 12.19 74.39 11.9877 74.6816 11.8208C74.9732 11.6538 75.3418 11.5703 75.7863 11.5703C76.1727 11.5703 76.5425 11.6479 76.8969 11.8031C77.2502 11.9583 77.5607 12.1759 77.8286 12.4581C78.0953 12.7391 78.3075 13.0765 78.464 13.4681C78.6204 13.8596 78.6986 14.2923 78.6986 14.765C78.6986 15.2377 78.6204 15.6704 78.464 16.0619C78.3075 16.4535 78.0953 16.7909 77.8286 17.0719C77.5619 17.353 77.2514 17.5717 76.8969 17.7269C76.5437 17.8821 76.1727 17.9597 75.7863 17.9597C75.3418 17.9597 74.9743 17.8762 74.6816 17.7092C74.39 17.5423 74.1731 17.34 74.0344 17.1025H73.9111L74.0344 17.9597V20.4077H72.1841V11.7655H73.9111V12.4263ZM75.3797 13.2835C75.183 13.2835 74.9957 13.3187 74.8191 13.3881C74.6425 13.4575 74.486 13.5574 74.3497 13.6879C74.2134 13.8185 74.1067 13.9737 74.0285 14.1536C73.9502 14.3323 73.9111 14.5369 73.9111 14.765C73.9111 14.9931 73.9502 15.2 74.0285 15.3835C74.1067 15.5669 74.2134 15.7221 74.3497 15.8479C74.4848 15.9749 74.6413 16.0725 74.8191 16.1419C74.9957 16.2112 75.183 16.2453 75.3797 16.2453C75.5765 16.2453 75.7638 16.2112 75.9416 16.1419C76.1182 16.0725 76.2747 15.9749 76.4098 15.8479C76.5461 15.7221 76.6528 15.5669 76.731 15.3835C76.8092 15.2 76.8483 14.9943 76.8483 14.765C76.8483 14.5357 76.8092 14.3323 76.731 14.1536C76.6528 13.9748 76.5461 13.8185 76.4098 13.6879C76.2747 13.5574 76.1182 13.4575 75.9416 13.3881C75.765 13.3187 75.5777 13.2835 75.3797 13.2835Z" fill="white"/>
<path d="M83.7815 17.1013H83.6582C83.5183 17.3389 83.3026 17.5399 83.011 17.7081C82.7194 17.875 82.3508 17.9585 81.9075 17.9585C81.5211 17.9585 81.1501 17.8809 80.7968 17.7257C80.4436 17.5705 80.133 17.3518 79.8652 17.0708C79.5985 16.7898 79.3863 16.4535 79.2298 16.0608C79.0734 15.6692 78.9951 15.2365 78.9951 14.7638C78.9951 14.2912 79.0734 13.8585 79.2298 13.4669C79.3863 13.0754 79.5985 12.7391 79.8652 12.4569C80.1319 12.1759 80.4424 11.9572 80.7968 11.802C81.1501 11.6468 81.5199 11.5691 81.9075 11.5691C82.352 11.5691 82.7194 11.6526 83.011 11.8196C83.3026 11.9866 83.5183 12.1888 83.6582 12.4251H83.7815L83.6582 11.568V9H85.5085V17.7622H83.7815V17.1013ZM82.3129 16.2442C82.5108 16.2442 82.6969 16.2101 82.8747 16.1407C83.0513 16.0713 83.2078 15.9737 83.3441 15.8468C83.4792 15.7209 83.5871 15.5657 83.6653 15.3823C83.7436 15.1989 83.7827 14.9931 83.7827 14.7638C83.7827 14.5345 83.7436 14.3311 83.6653 14.1524C83.5871 13.9737 83.4804 13.8173 83.3441 13.6868C83.2078 13.5563 83.0525 13.4563 82.8747 13.387C82.6981 13.3176 82.5108 13.2823 82.3129 13.2823C82.1149 13.2823 81.9288 13.3176 81.7522 13.387C81.5756 13.4563 81.4191 13.5563 81.2828 13.6868C81.1465 13.8173 81.0398 13.9725 80.9616 14.1524C80.8834 14.3311 80.8442 14.5357 80.8442 14.7638C80.8442 14.9919 80.8834 15.1989 80.9616 15.3823C81.0398 15.5657 81.1465 15.7209 81.2828 15.8468C81.4179 15.9737 81.5744 16.0713 81.7522 16.1407C81.9288 16.2101 82.1161 16.2442 82.3129 16.2442Z" fill="white"/>
<path d="M92.2815 16.3064C91.9852 16.8203 91.5964 17.2247 91.1163 17.5187C90.6351 17.8127 90.0531 17.9585 89.3703 17.9585C88.901 17.9585 88.4671 17.8797 88.0689 17.7198C87.6694 17.561 87.3221 17.3388 87.027 17.0531C86.7306 16.7674 86.5007 16.4311 86.3359 16.0431C86.1711 15.6562 86.0894 15.2294 86.0894 14.7638C86.0894 14.3311 86.1711 13.9219 86.3359 13.5339C86.5007 13.147 86.7282 12.8072 87.021 12.518C87.3126 12.2287 87.654 11.9983 88.0452 11.8266C88.4363 11.6549 88.8618 11.5691 89.3218 11.5691C89.8231 11.5691 90.2653 11.6514 90.6481 11.8137C91.031 11.9771 91.3499 12.1993 91.6047 12.4803C91.8595 12.7614 92.0528 13.0918 92.1843 13.4716C92.3159 13.8513 92.3823 14.257 92.3823 14.6897C92.3823 14.7555 92.3799 14.8202 92.3764 14.8861C92.3716 14.9519 92.3657 15.0083 92.3574 15.0577C92.3491 15.1153 92.3455 15.1683 92.3455 15.2165H87.8922C87.9823 15.608 88.1672 15.8937 88.447 16.0736C88.7267 16.2535 89.0385 16.3429 89.3846 16.3429C89.7307 16.3429 90.0152 16.27 90.2416 16.123C90.468 15.976 90.647 15.7891 90.7785 15.5598L92.2839 16.3064H92.2815ZM90.641 13.9689C90.6244 13.8713 90.5853 13.7643 90.5237 13.6503C90.462 13.5362 90.3755 13.4328 90.2641 13.3387C90.1527 13.2446 90.0175 13.167 89.8563 13.1059C89.6963 13.0447 89.5173 13.0142 89.3194 13.0142C89.0313 13.0142 88.7646 13.0965 88.5169 13.2587C88.2704 13.4222 88.089 13.6585 87.974 13.9689H90.6387H90.641Z" fill="white"/>
<path d="M95.5754 17.9585C95.1558 17.9585 94.786 17.9102 94.4648 17.8115C94.1436 17.7139 93.8662 17.5857 93.6315 17.4258C93.3968 17.2671 93.2012 17.0825 93.046 16.8755C92.8895 16.6674 92.7698 16.4569 92.688 16.2453L94.3534 15.548C94.4684 15.8255 94.6284 16.0278 94.8346 16.1536C95.0397 16.2806 95.2862 16.3429 95.5743 16.3429C95.8208 16.3429 96.0116 16.3041 96.148 16.2265C96.2843 16.1489 96.3518 16.0489 96.3518 15.9266C96.3518 15.7879 96.2866 15.6797 96.1551 15.6021C96.0235 15.5245 95.8137 15.454 95.5257 15.3881L94.6995 15.2165C94.5027 15.1753 94.3 15.1106 94.095 15.0201C93.8887 14.9307 93.7003 14.812 93.5272 14.665C93.3541 14.518 93.2143 14.3452 93.1076 14.1453C93.0009 13.9454 92.9476 13.7149 92.9476 13.4539C92.9476 13.1682 93.0116 12.9095 93.1384 12.6767C93.2652 12.4439 93.4407 12.2464 93.6623 12.0829C93.884 11.9195 94.1471 11.7937 94.4518 11.7043C94.7564 11.6149 95.0895 11.5691 95.451 11.5691C96.0757 11.5691 96.615 11.6773 97.0666 11.8936C97.5194 12.11 97.8596 12.4709 98.0907 12.9765L96.5 13.6256C96.3933 13.4128 96.2428 13.2587 96.0496 13.16C95.8564 13.0624 95.6608 13.013 95.464 13.013C95.2495 13.013 95.0776 13.0494 94.946 13.1235C94.8145 13.1976 94.7493 13.287 94.7493 13.3928C94.7493 13.5068 94.8168 13.5985 94.9532 13.6679C95.0883 13.7373 95.2554 13.7961 95.4534 13.8455L96.391 14.0653C97.0073 14.2123 97.4684 14.4487 97.7731 14.7744C98.0777 15.1012 98.2294 15.4845 98.2294 15.9255C98.2294 16.1947 98.1654 16.4522 98.0386 16.6968C97.9105 16.9414 97.7304 17.1577 97.4957 17.3447C97.261 17.5328 96.9812 17.681 96.6565 17.7915C96.3317 17.902 95.9714 17.9561 95.5766 17.9561L95.5754 17.9585Z" fill="white"/>
<path d="M98.8198 9H100.67V13.4552H100.793L102.52 11.7667H104.778V11.889L102.595 13.969L105.001 17.6399V17.7622H102.83L101.288 15.2295L100.671 15.8162V17.7622H98.821V9H98.8198Z" fill="white"/>
<path d="M57.8369 30V28.5679H54V27.0499L57.6769 21.6294H59.6872V26.8547H60.7232V28.5679H59.6872V30H57.8369ZM57.8369 24.3831H57.7136L56.0482 26.8547H57.8369V24.3831Z" fill="white"/>
<path d="M63.3393 30V23.7588L61.9204 24.3467L61.2424 22.7806L63.7221 21.6306H65.1908V30.0012H63.3405L63.3393 30Z" fill="white"/>
<path d="M68.4218 30V23.7588L67.003 24.3467L66.325 22.7806L68.8047 21.6306H70.2733V30.0012H68.423L68.4218 30Z" fill="white"/>
</g>
<defs>
<clipPath id="clip0_310_785">
<rect width="51" height="21" fill="white" transform="translate(54 9)"/>
</clipPath>
</defs>
</svg>
