<svg width="91" height="84" viewBox="0 0 91 84" fill="none" xmlns="http://www.w3.org/2000/svg">
<path d="M48.4693 6.96484H42.5874C29.6524 6.96484 19.0497 16.9786 18.0851 29.6844C18.7778 29.5623 19.4995 29.5063 20.2397 29.5063C20.8114 29.5063 21.3729 29.5436 21.9166 29.6191C23.1718 19.0703 32.1263 10.9133 42.9906 10.9133H48.0671C58.9323 10.9133 67.8859 19.061 69.1504 29.6005C69.6746 29.5446 70.2184 29.5063 70.7612 29.5063C71.5201 29.5063 72.2594 29.5716 72.981 29.6937C72.0257 16.9796 61.423 6.96484 48.4693 6.96484Z" fill="black"/>
<path d="M33.3424 42.6324C33.3424 47.3583 30.8414 51.5025 27.1049 53.8188C25.9158 54.5505 24.5946 55.1033 23.1895 55.4221C22.2435 55.6467 21.2509 55.7595 20.2388 55.7595C12.9984 55.7595 7.12585 49.8806 7.12585 42.6324C7.12585 36.116 11.8652 30.7153 18.0842 29.6834C18.7769 29.5613 19.4985 29.5054 20.2388 29.5054C20.8105 29.5054 21.372 29.5427 21.9157 29.6182C28.36 30.4338 33.3424 35.9566 33.3424 42.6324Z" fill="black"/>
<path d="M83.8639 42.6324C83.8639 49.1675 79.0966 54.5878 72.8488 55.5908C72.2212 55.6943 71.575 55.7502 70.9195 55.7595H70.7603C69.7677 55.7595 68.7938 55.6467 67.8664 55.4407C66.4613 55.1219 65.141 54.5785 63.9417 53.8468C60.1669 51.5398 57.6473 47.3769 57.6473 42.6324C57.6473 39.2665 58.9211 36.1905 61.0096 33.8658C61.4314 33.3877 61.8998 32.9374 62.396 32.5348C64.2788 30.9688 66.6019 29.9183 69.1494 29.5995C69.6737 29.5436 70.2174 29.5054 70.7603 29.5054C71.5191 29.5054 72.2584 29.5706 72.9801 29.6927C79.1617 30.7525 83.8639 36.1439 83.8639 42.6324Z" fill="black"/>
<path d="M70.9177 55.7576C69.5601 64.692 62.817 71.8544 54.1176 73.823V75.7451C63.9129 73.7102 71.4987 65.639 72.847 55.5889C72.2194 55.6923 71.5732 55.7483 70.9177 55.7576Z" fill="black"/>
<path d="M54.1165 72.0176H45.4916V77.038H54.1165V72.0176Z" fill="#EA2427"/>
<path d="M18.0217 60.3904H19.5339V63.0684H22.1894V60.3904H23.7015V67.3366H22.1894V64.5038H19.5339V67.3366H18.0217V60.3904Z" fill="black"/>
<path d="M29.225 66.1815C28.9922 66.5889 28.6868 66.9095 28.3097 67.1426C27.9317 67.3756 27.4745 67.4912 26.9382 67.4912C26.5695 67.4912 26.2287 67.4287 25.9158 67.302C25.602 67.1761 25.3292 66.9999 25.0974 66.7734C24.8646 66.5469 24.6839 66.2804 24.5545 65.9728C24.4251 65.6661 24.3608 65.3277 24.3608 64.9586C24.3608 64.6156 24.4251 64.2912 24.5545 63.9836C24.6839 63.6769 24.8627 63.4076 25.0927 63.1782C25.3218 62.9489 25.5899 62.7662 25.8972 62.6302C26.2045 62.4941 26.5387 62.426 26.9 62.426C27.2939 62.426 27.6412 62.4913 27.9419 62.6199C28.2427 62.7495 28.4931 62.9256 28.6933 63.1484C28.8935 63.3712 29.0453 63.6331 29.1486 63.9342C29.252 64.2353 29.3041 64.5569 29.3041 64.8999C29.3041 64.9521 29.3023 65.0033 29.2995 65.0555C29.2958 65.1077 29.2911 65.1525 29.2846 65.1916C29.2781 65.2373 29.2753 65.2793 29.2753 65.3175H25.7771C25.8478 65.6279 25.9931 65.8544 26.2128 65.997C26.4326 66.1396 26.6775 66.2104 26.9493 66.2104C27.2212 66.2104 27.4447 66.1527 27.6225 66.0361C27.8004 65.9196 27.941 65.7714 28.0443 65.5896L29.2269 66.1815H29.225ZM27.9363 64.3294C27.9233 64.2521 27.8926 64.1672 27.8442 64.0768C27.7957 63.9864 27.7278 63.9044 27.6402 63.8298C27.5527 63.7552 27.4466 63.6937 27.3199 63.6452C27.1942 63.5968 27.0536 63.5725 26.8981 63.5725C26.6719 63.5725 26.4624 63.6378 26.2678 63.7664C26.0741 63.896 25.9316 64.0833 25.8413 64.3294H27.9345H27.9363Z" fill="black"/>
<path d="M29.8059 67.3366V60.3904H31.2594V67.3366H29.8059Z" fill="black"/>
<path d="M33.3535 63.1066H33.4503C33.5602 62.9192 33.7296 62.7589 33.9587 62.6265C34.1877 62.4942 34.4773 62.428 34.8265 62.428C35.13 62.428 35.4205 62.4895 35.6989 62.6125C35.9764 62.7356 36.2204 62.908 36.4308 63.1317C36.6403 63.3545 36.807 63.622 36.9299 63.9324C37.0528 64.2428 37.1142 64.5858 37.1142 64.9606C37.1142 65.3353 37.0528 65.6783 36.9299 65.9887C36.807 66.2991 36.6403 66.5666 36.4308 66.7894C36.2213 67.0122 35.9774 67.1855 35.6989 67.3086C35.4215 67.4316 35.13 67.4931 34.8265 67.4931C34.4773 67.4931 34.1887 67.4269 33.9587 67.2946C33.7296 67.1622 33.5592 67.0019 33.4503 66.8136H33.3535L33.4503 67.4931V69.4338H31.9968V62.5846H33.3535V63.1084V63.1066ZM34.5062 63.7861C34.3516 63.7861 34.2045 63.814 34.0658 63.869C33.927 63.924 33.8041 64.0033 33.697 64.1067C33.59 64.2102 33.5062 64.3332 33.4447 64.4759C33.3833 64.6175 33.3525 64.7797 33.3525 64.9606C33.3525 65.1414 33.3833 65.3054 33.4447 65.4508C33.5062 65.5963 33.59 65.7193 33.697 65.819C33.8032 65.9197 33.9261 65.9971 34.0658 66.0521C34.2045 66.1071 34.3516 66.1341 34.5062 66.1341C34.6608 66.1341 34.8079 66.1071 34.9475 66.0521C35.0863 65.9971 35.2092 65.9197 35.3153 65.819C35.4224 65.7193 35.5062 65.5963 35.5677 65.4508C35.6291 65.3054 35.6598 65.1423 35.6598 64.9606C35.6598 64.7788 35.6291 64.6175 35.5677 64.4759C35.5062 64.3342 35.4224 64.2102 35.3153 64.1067C35.2092 64.0033 35.0863 63.924 34.9475 63.869C34.8088 63.814 34.6617 63.7861 34.5062 63.7861Z" fill="black"/>
<path d="M41.106 66.8126H41.0092C40.8993 67.0009 40.7299 67.1603 40.5008 67.2936C40.2718 67.4259 39.9822 67.4921 39.6339 67.4921C39.3304 67.4921 39.039 67.4306 38.7615 67.3076C38.484 67.1845 38.2401 67.0112 38.0296 66.7884C37.8201 66.5656 37.6535 66.299 37.5306 65.9877C37.4076 65.6773 37.3462 65.3343 37.3462 64.9596C37.3462 64.5848 37.4076 64.2418 37.5306 63.9314C37.6535 63.621 37.8201 63.3544 38.0296 63.1307C38.2391 62.907 38.4831 62.7346 38.7615 62.6115C39.039 62.4885 39.3295 62.427 39.6339 62.427C39.9831 62.427 40.2718 62.4932 40.5008 62.6255C40.7299 62.7579 40.8993 62.9182 41.0092 63.1056H41.106L41.0092 62.426V60.3884H42.4627V67.3346H41.106V66.8107V66.8126ZM39.9524 66.1331C40.1079 66.1331 40.2541 66.1061 40.3937 66.0511C40.5325 65.9961 40.6554 65.9187 40.7625 65.818C40.8686 65.7183 40.9533 65.5953 41.0148 65.4498C41.0762 65.3044 41.107 65.1413 41.107 64.9596C41.107 64.7778 41.0762 64.6165 41.0148 64.4749C40.9533 64.3332 40.8695 64.2092 40.7625 64.1057C40.6554 64.0023 40.5334 63.923 40.3937 63.868C40.255 63.813 40.1079 63.7851 39.9524 63.7851C39.7969 63.7851 39.6507 63.813 39.512 63.868C39.3732 63.923 39.2503 64.0023 39.1433 64.1057C39.0371 64.2092 38.9524 64.3322 38.8909 64.4749C38.8295 64.6165 38.7987 64.7787 38.7987 64.9596C38.7987 65.1404 38.8295 65.3044 38.8909 65.4498C38.9524 65.5953 39.0362 65.7183 39.1433 65.818C39.2494 65.9187 39.3723 65.9961 39.512 66.0511C39.6507 66.1061 39.7978 66.1331 39.9524 66.1331Z" fill="black"/>
<path d="M47.7831 66.1815C47.5503 66.5889 47.2449 66.9095 46.8678 67.1426C46.4898 67.3756 46.0326 67.4912 45.4963 67.4912C45.1276 67.4912 44.7868 67.4287 44.4739 67.302C44.1601 67.1761 43.8873 66.9999 43.6555 66.7734C43.4227 66.5469 43.242 66.2804 43.1126 65.9728C42.9832 65.6661 42.9189 65.3277 42.9189 64.9586C42.9189 64.6156 42.9832 64.2912 43.1126 63.9836C43.242 63.6769 43.4208 63.4076 43.6508 63.1782C43.8799 62.9489 44.148 62.7662 44.4553 62.6302C44.7626 62.4941 45.0968 62.426 45.4581 62.426C45.852 62.426 46.1993 62.4913 46.5 62.6199C46.8008 62.7495 47.0512 62.9256 47.2514 63.1484C47.4516 63.3712 47.6034 63.6331 47.7068 63.9342C47.8101 64.2353 47.8623 64.5569 47.8623 64.8999C47.8623 64.9521 47.8604 65.0033 47.8576 65.0555C47.8539 65.1077 47.8492 65.1525 47.8427 65.1916C47.8362 65.2373 47.8334 65.2793 47.8334 65.3175H44.3352C44.4059 65.6279 44.5512 65.8544 44.7709 65.997C44.9907 66.1396 45.2356 66.2104 45.5075 66.2104C45.7793 66.2104 46.0028 66.1527 46.1807 66.0361C46.3585 65.9196 46.4991 65.7714 46.6024 65.5896L47.785 66.1815H47.7831ZM46.4944 64.3294C46.4814 64.2521 46.4507 64.1672 46.4023 64.0768C46.3538 63.9864 46.2859 63.9044 46.1983 63.8298C46.1108 63.7552 46.0047 63.6937 45.878 63.6452C45.7523 63.5968 45.6117 63.5725 45.4562 63.5725C45.23 63.5725 45.0205 63.6378 44.8259 63.7664C44.6322 63.896 44.4897 64.0833 44.3994 64.3294H46.4926H46.4944Z" fill="black"/>
<path d="M50.3706 67.4912C50.041 67.4912 49.7505 67.453 49.4982 67.3747C49.2458 67.2973 49.028 67.1957 48.8436 67.0689C48.6592 66.9431 48.5056 66.7967 48.3836 66.6327C48.2607 66.4677 48.1667 66.3009 48.1024 66.1331L49.4106 65.5803C49.501 65.8003 49.6267 65.9606 49.7887 66.0604C49.9498 66.161 50.1434 66.2104 50.3697 66.2104C50.5634 66.2104 50.7133 66.1797 50.8203 66.1182C50.9274 66.0566 50.9805 65.9774 50.9805 65.8805C50.9805 65.7705 50.9293 65.6847 50.8259 65.6232C50.7226 65.5617 50.5578 65.5058 50.3315 65.4536L49.6825 65.3175C49.528 65.2848 49.3687 65.2336 49.2077 65.1618C49.0456 65.091 48.8976 64.9968 48.7616 64.8803C48.6257 64.7638 48.5158 64.6268 48.432 64.4683C48.3482 64.3098 48.3063 64.1271 48.3063 63.9202C48.3063 63.6937 48.3566 63.4886 48.4562 63.3041C48.5559 63.1195 48.6937 62.9629 48.8678 62.8334C49.0419 62.7038 49.2486 62.6041 49.4879 62.5332C49.7272 62.4624 49.9889 62.426 50.2729 62.426C50.7636 62.426 51.1872 62.5118 51.542 62.6833C51.8977 62.8548 52.1649 63.141 52.3465 63.5418L51.0969 64.0563C51.0131 63.8876 50.8948 63.7655 50.7431 63.6872C50.5913 63.6098 50.4377 63.5707 50.2831 63.5707C50.1146 63.5707 49.9795 63.5996 49.8762 63.6583C49.7728 63.717 49.7216 63.7879 49.7216 63.8717C49.7216 63.9622 49.7747 64.0349 49.8818 64.0899C49.9879 64.1449 50.1192 64.1915 50.2747 64.2306L51.0112 64.4049C51.4954 64.5214 51.8576 64.7088 52.0969 64.967C52.3362 65.2261 52.4554 65.53 52.4554 65.8795C52.4554 66.093 52.4051 66.2971 52.3055 66.491C52.2049 66.6849 52.0634 66.8564 51.879 67.0046C51.6947 67.1538 51.4749 67.2712 51.2198 67.3588C50.9647 67.4464 50.6816 67.4893 50.3716 67.4893L50.3706 67.4912Z" fill="black"/>
<path d="M52.9191 60.3904H54.3725V63.9222H54.4694L55.826 62.5837H57.5998V62.6806L55.8847 64.3295L57.7748 67.2396V67.3366H56.069L54.8576 65.3288L54.3735 65.7939V67.3366H52.92V60.3904H52.9191Z" fill="black"/>
<path d="M20.7257 77.0379V75.9025H17.7117V74.6992L20.6 70.4021H22.1792V74.5444H22.993V75.9025H22.1792V77.0379H20.7257ZM20.7257 72.5851H20.6289L19.3206 74.5444H20.7257V72.5851Z" fill="#EA2427"/>
<path d="M25.0479 77.0379V72.0902L23.9334 72.5563L23.4008 71.3147L25.3487 70.4031H26.5023V77.0388H25.0488L25.0479 77.0379Z" fill="#EA2427"/>
<path d="M29.0406 77.0379V72.0902L27.926 72.5563L27.3934 71.3147L29.3413 70.4031H30.495V77.0388H29.0415L29.0406 77.0379Z" fill="#EA2427"/>
</svg>
