<svg width="51" height="51" viewBox="0 0 51 51" fill="none" xmlns="http://www.w3.org/2000/svg">
<path d="M3.41699 6.72925H32.1253V47.5834H3.41699V6.72925Z" fill="#F9BEBF"/>
<path d="M8.9375 26.6042H26.6042M17.7708 38.7501V47.5834" stroke="#CB2032" stroke-width="5"/>
<path d="M38.7503 29.9167C38.7503 29.9167 47.5837 18.7426 47.5837 12.2501C47.5837 7.12675 43.8737 3.41675 38.7503 3.41675C33.627 3.41675 29.917 7.12675 29.917 12.2501C29.917 18.7426 38.7503 29.9167 38.7503 29.9167Z" fill="white"/>
<path d="M38.7503 11.1459V14.4584M32.1253 32.1251V47.5834H3.41699V6.72925H24.3962M8.93783 16.6667H24.3962M38.7503 29.9167C38.7503 29.9167 47.5837 18.7426 47.5837 12.2501C47.5837 7.12675 43.8737 3.41675 38.7503 3.41675C33.627 3.41675 29.917 7.12675 29.917 12.2501C29.917 18.7426 38.7503 29.9167 38.7503 29.9167Z" stroke="#CB2032" stroke-width="5"/>
</svg>
